<svg width="1440" height="591" viewBox="0 0 1440 591" fill="none" xmlns="http://www.w3.org/2000/svg">
    <g style="mix-blend-mode:color-burn" opacity="0.07">
        <path
            d="M307.643 266.552C275.098 230.447 205.43 156.965 187.115 151.88C168.8 146.796 157.039 251.816 153.448 304.961L-14.2364 -15.0054"
            stroke="#483EB8" stroke-width="48" stroke-linecap="square" stroke-linejoin="bevel" />
    </g>
    <g style="mix-blend-mode:color-burn" opacity="0.07">
        <path d="M367.666 561.66L242.096 403.458" stroke="#483EB8" stroke-width="48"
            stroke-linecap="square" stroke-linejoin="bevel" />
    </g>
    <g style="mix-blend-mode:color-burn" opacity="0.07">
        <path
            d="M809.794 558.664C371.306 222.082 693.82 -364.522 1285.6 106.447C1724.09 455.418 1418.08 732.117 1057.96 343.912"
            stroke="#483EB8" stroke-width="50" stroke-linecap="square" stroke-linejoin="bevel" />
    </g>
    <path opacity="0.33" d="M152.814 -16.3773C434.224 167.818 40.2508 384.418 232.974 737.459"
        stroke="#35C475" stroke-width="2" />
    <path opacity="0.33" d="M115.293 -23.1995C396.703 160.996 101.649 271.854 294.372 624.895"
        stroke="#35C475" stroke-width="2" />
    <path opacity="0.33" d="M1237.82 -14.9109C1158.33 98.8964 1542.74 318.557 1360.31 631.288"
        stroke="#35C475" stroke-width="2" />
</svg>
    