<svg width="1432" height="2140" viewBox="0 0 1432 2140" fill="none"
    xmlns="http://www.w3.org/2000/svg">
    <g opacity="0.17">
        <path
            d="M170.362 855.73C216.511 884.498 316.047 892.101 370.537 776.388C425.027 660.674 307.286 577.945 226.613 637.37C154.902 690.193 225.551 751.518 276.196 703.99C326.842 656.462 318.546 538.194 211.55 482.572C78.8758 413.6 -235.891 503.072 -166.473 765.727"
            stroke="#C991F9" stroke-width="48" stroke-linecap="square" stroke-linejoin="bevel" />
        <path
            d="M845.838 2259.18C908.927 2316.9 1060.64 2357.23 1178.12 2193.96C1295.59 2030.7 1137.31 1868.99 995.517 1937.72C869.474 1998.8 961.094 2113.9 1053.05 2054.95C1145 1996 1166.14 1810.77 1016.68 1694.06C831.364 1549.34 319.006 1597.32 350.902 2023.34C353.298 2064.92 385.533 2245.07 499.229 2303.86"
            stroke="#C991F9" stroke-width="48" stroke-linecap="square" stroke-linejoin="bevel" />
        <path
            d="M366.222 1005.72C419.131 1055.81 520.853 1156 504.468 1156C488.084 1156 337.207 1173.27 263.816 1181.91L740 1492.82C591.513 1437.55 221.83 1387.11 -69 1627.55"
            stroke="#C991F9" stroke-width="48" stroke-linecap="square" stroke-linejoin="bevel" />
        <path
            d="M252.46 -222.271C296.083 -180.957 379.95 -98.3299 366.442 -98.3299C352.933 -98.3299 228.539 -84.0839 168.03 -76.9608L560.631 179.468C438.207 133.881 133.414 92.2824 -106.369 290.588"
            stroke="#C991F9" stroke-width="48" stroke-linecap="square" stroke-linejoin="bevel" />
        <path
            d="M1715.7 1152.19C1616.81 1097.57 1421.59 986.262 1431.89 977.963C1442.2 969.663 1514.44 865.162 1549.27 813.949L842.513 549.804C1008.29 564.429 1306.82 459.147 1174.68 -78.9787"
            stroke="#C991F9" stroke-width="48" stroke-linecap="square" stroke-linejoin="bevel" />
        <path
            d="M1324.34 1527.58C1300.68 1462.24 1276.98 1315.04 1389.47 1242.48C1501.97 1169.92 1608.53 1324.69 1484.21 1396.91C1359.89 1469.12 1105.33 1379.09 833 921.745"
            stroke="#C991F9" stroke-width="48" stroke-linecap="square" stroke-linejoin="bevel" />
    </g>
</svg>