<svg width="1440" height="1560" viewBox="0 0 1440 1560" fill="none"
    xmlns="http://www.w3.org/2000/svg">
    <g opacity="0.04">
        <path
            d="M1230.23 691.159C1392.99 650.492 1599.11 654.974 1859.46 746.744L1921.42 591.899C1615.73 483.969 1371.47 479.805 1177.95 528.526C1117.55 405.011 1016.7 308.866 883.747 250.869C719.629 179.187 529.203 178.562 330.911 248.916C266.036 152.346 164.82 52.8826 11.1047 -43.7588L-88.5955 92.9271C34.1893 169.909 116.254 247.155 169.418 321.113C-48.0346 439.781 -225.253 626.003 -279.436 801.805C-341.72 1003.45 -283.915 1095.21 -222.727 1136.8C-208.588 1146.41 -194.508 1153.26 -181.364 1158.44C-23.0666 1219.01 227.441 1078.51 354.13 857.607C394.682 787.033 473.905 610.873 405.927 401.789C518.881 363.389 667.884 339.609 808.961 401.082C898.446 440.095 967.396 505.02 1010.5 588.835C750.355 711.2 609.439 926.868 542.881 1028.83L539.332 1034.26C359.093 1310.43 419.152 1500.16 525.273 1578.77C627.112 1653.78 769.209 1639.29 879.249 1541.99C1148.43 1303.98 1282.85 978.761 1230.23 691.159ZM194.097 777.457C96.0743 947.995 -72.7462 1021.3 -114.9 1004.91C-126.144 1000.54 -139.79 957.375 -106.454 849.525C-66.7116 720.814 74.449 573.463 242.611 475.813C273.222 599.526 234.932 706.053 194.097 777.457ZM636.362 1449.48C595.417 1419.26 574.938 1303.12 694.1 1121.05L697.825 1115.41C756.299 1026.01 864.326 859.882 1058.56 756.783C1081.57 980.961 967.338 1231.08 752.943 1420.7C710.104 1458.11 664.084 1469.94 636.362 1449.48Z"
            fill="#35C475" style="mix-blend-mode:multiply" />
    </g>
</svg>
    