<svg width="34" height="34" viewBox="0 0 34 34" fill="none" xmlns="http://www.w3.org/2000/svg">
    <path
        d="M16.9509 11.0757C15.7272 11.0757 14.5309 11.4386 13.5133 12.1185C12.4958 12.7984 11.7027 13.7647 11.2344 14.8953C10.7661 16.0259 10.6436 17.27 10.8823 18.4703C11.1211 19.6706 11.7104 20.7731 12.5757 21.6384C13.441 22.5037 14.5435 23.093 15.7438 23.3318C16.9441 23.5705 18.1882 23.448 19.3188 22.9797C20.4494 22.5114 21.4158 21.7183 22.0956 20.7008C22.7755 19.6832 23.1384 18.487 23.1384 17.2632C23.1367 15.6227 22.4843 14.0499 21.3243 12.8898C20.1643 11.7298 18.5914 11.0774 16.9509 11.0757ZM16.9509 21.3882C16.1351 21.3882 15.3376 21.1463 14.6592 20.693C13.9808 20.2397 13.4521 19.5955 13.1399 18.8418C12.8277 18.088 12.746 17.2586 12.9052 16.4584C13.0644 15.6583 13.4572 14.9233 14.0341 14.3464C14.611 13.7695 15.346 13.3766 16.1462 13.2174C16.9464 13.0583 17.7758 13.14 18.5295 13.4522C19.2832 13.7644 19.9275 14.2931 20.3807 14.9715C20.834 15.6498 21.0759 16.4473 21.0759 17.2632C21.0759 18.3572 20.6413 19.4064 19.8677 20.18C19.0942 20.9536 18.0449 21.3882 16.9509 21.3882ZM23.1384 3.85693H10.7634C8.84952 3.85898 7.0146 4.62018 5.66126 5.97352C4.30793 7.32685 3.54673 9.16178 3.54468 11.0757V23.4507C3.54673 25.3646 4.30793 27.1995 5.66126 28.5529C7.0146 29.9062 8.84952 30.6674 10.7634 30.6694H23.1384C25.0523 30.6674 26.8873 29.9062 28.2406 28.5529C29.5939 27.1995 30.3551 25.3646 30.3572 23.4507V11.0757C30.3551 9.16178 29.5939 7.32685 28.2406 5.97352C26.8873 4.62018 25.0523 3.85898 23.1384 3.85693ZM28.2947 23.4507C28.2947 24.8182 27.7514 26.1297 26.7844 27.0967C25.8175 28.0637 24.506 28.6069 23.1384 28.6069H10.7634C9.39591 28.6069 8.08439 28.0637 7.11741 27.0967C6.15042 26.1297 5.60718 24.8182 5.60718 23.4507V11.0757C5.60718 9.70816 6.15042 8.39665 7.11741 7.42966C8.08439 6.46268 9.39591 5.91943 10.7634 5.91943H23.1384C24.506 5.91943 25.8175 6.46268 26.7844 7.42966C27.7514 8.39665 28.2947 9.70816 28.2947 11.0757V23.4507ZM25.2009 10.5601C25.2009 10.866 25.1102 11.1651 24.9402 11.4195C24.7703 11.6738 24.5287 11.8721 24.246 11.9892C23.9634 12.1063 23.6523 12.1369 23.3523 12.0772C23.0522 12.0175 22.7766 11.8702 22.5602 11.6539C22.3439 11.4375 22.1966 11.1619 22.1369 10.8618C22.0772 10.5618 22.1078 10.2507 22.2249 9.9681C22.342 9.68544 22.5403 9.44385 22.7947 9.27388C23.049 9.10391 23.3481 9.01318 23.6541 9.01318C24.0643 9.01318 24.4578 9.17616 24.7479 9.46625C25.038 9.75635 25.2009 10.1498 25.2009 10.5601Z"
        fill="white" />
</svg>
    