<svg width="34" height="34" viewBox="0 0 34 34" fill="none" xmlns="http://www.w3.org/2000/svg">
    <path
        d="M28.2947 3.85693H5.60718C5.06017 3.85693 4.53556 4.07423 4.14877 4.46103C3.76198 4.84782 3.54468 5.37242 3.54468 5.91943V28.6069C3.54468 29.1539 3.76198 29.6785 4.14877 30.0653C4.53556 30.4521 5.06017 30.6694 5.60718 30.6694H28.2947C28.8417 30.6694 29.3663 30.4521 29.7531 30.0653C30.1399 29.6785 30.3572 29.1539 30.3572 28.6069V5.91943C30.3572 5.37242 30.1399 4.84782 29.7531 4.46103C29.3663 4.07423 28.8417 3.85693 28.2947 3.85693ZM28.2947 28.6069H5.60718V5.91943H28.2947V28.6069ZM12.8259 15.2007V23.4507C12.8259 23.7242 12.7173 23.9865 12.5239 24.1799C12.3305 24.3733 12.0682 24.4819 11.7947 24.4819C11.5212 24.4819 11.2589 24.3733 11.0655 24.1799C10.8721 23.9865 10.7634 23.7242 10.7634 23.4507V15.2007C10.7634 14.9272 10.8721 14.6649 11.0655 14.4715C11.2589 14.2781 11.5212 14.1694 11.7947 14.1694C12.0682 14.1694 12.3305 14.2781 12.5239 14.4715C12.7173 14.6649 12.8259 14.9272 12.8259 15.2007ZM24.1697 18.8101V23.4507C24.1697 23.7242 24.061 23.9865 23.8676 24.1799C23.6742 24.3733 23.4119 24.4819 23.1384 24.4819C22.8649 24.4819 22.6026 24.3733 22.4092 24.1799C22.2158 23.9865 22.1072 23.7242 22.1072 23.4507V18.8101C22.1072 18.1263 21.8356 17.4705 21.3521 16.987C20.8686 16.5036 20.2128 16.2319 19.5291 16.2319C18.8453 16.2319 18.1895 16.5036 17.706 16.987C17.2226 17.4705 16.9509 18.1263 16.9509 18.8101V23.4507C16.9509 23.7242 16.8423 23.9865 16.6489 24.1799C16.4555 24.3733 16.1932 24.4819 15.9197 24.4819C15.6462 24.4819 15.3839 24.3733 15.1905 24.1799C14.9971 23.9865 14.8884 23.7242 14.8884 23.4507V15.2007C14.8897 14.9481 14.9837 14.7047 15.1524 14.5168C15.3212 14.3289 15.5531 14.2094 15.8041 14.1811C16.0552 14.1529 16.3078 14.2177 16.5142 14.3633C16.7206 14.5089 16.8664 14.7253 16.9239 14.9712C17.6215 14.498 18.4348 14.2237 19.2766 14.1778C20.1183 14.132 20.9567 14.3163 21.7016 14.7109C22.4465 15.1056 23.0698 15.6957 23.5047 16.4179C23.9395 17.1401 24.1694 17.9671 24.1697 18.8101ZM13.3416 11.5913C13.3416 11.8973 13.2508 12.1963 13.0809 12.4507C12.9109 12.7051 12.6693 12.9034 12.3866 13.0204C12.104 13.1375 11.793 13.1681 11.4929 13.1085C11.1928 13.0488 10.9172 12.9014 10.7009 12.6851C10.4845 12.4688 10.3372 12.1932 10.2775 11.8931C10.2178 11.593 10.2485 11.282 10.3656 10.9993C10.4826 10.7167 10.6809 10.4751 10.9353 10.3051C11.1897 10.1352 11.4887 10.0444 11.7947 10.0444C12.2049 10.0444 12.5984 10.2074 12.8885 10.4975C13.1786 10.7876 13.3416 11.1811 13.3416 11.5913Z"
        fill="white" />
</svg>
    