<svg width="34" height="34" viewBox="0 0 34 34" fill="none" xmlns="http://www.w3.org/2000/svg">
    <path
        d="M21.6483 16.4047L15.4608 12.2797C15.3054 12.176 15.1249 12.1165 14.9383 12.1075C14.7518 12.0984 14.5663 12.1402 14.4017 12.2284C14.2371 12.3165 14.0994 12.4477 14.0035 12.6079C13.9076 12.7682 13.8571 12.9514 13.8572 13.1382V21.3882C13.8571 21.5749 13.9076 21.7582 14.0035 21.9184C14.0994 22.0787 14.2371 22.2099 14.4017 22.298C14.5663 22.3862 14.7518 22.4279 14.9383 22.4189C15.1249 22.4099 15.3054 22.3503 15.4608 22.2467L21.6483 18.1217C21.7897 18.0276 21.9057 17.8999 21.986 17.7502C22.0662 17.6004 22.1082 17.4331 22.1082 17.2632C22.1082 17.0933 22.0662 16.926 21.986 16.7762C21.9057 16.6264 21.7897 16.4988 21.6483 16.4047ZM15.9197 19.461V15.0718L19.2171 17.2632L15.9197 19.461ZM30.6575 9.72475C30.5361 9.24953 30.3034 8.81001 29.9786 8.44243C29.6538 8.07486 29.2463 7.78977 28.7897 7.61069C24.3708 5.90397 17.3376 5.91944 16.9509 5.91944C16.5642 5.91944 9.53108 5.90397 5.11218 7.61069C4.65554 7.78977 4.24803 8.07486 3.92327 8.44243C3.5985 8.81001 3.36579 9.24953 3.24433 9.72475C2.91046 11.0112 2.51343 13.3625 2.51343 17.2632C2.51343 21.1639 2.91046 23.5151 3.24433 24.8016C3.36561 25.2771 3.59824 25.7169 3.92301 26.0847C4.24779 26.4525 4.6554 26.7378 5.11218 26.917C9.34546 28.5502 15.9712 28.6069 16.8658 28.6069H17.036C17.9306 28.6069 24.5603 28.5502 28.7897 26.917C29.2465 26.7378 29.6541 26.4525 29.9788 26.0847C30.3036 25.7169 30.5362 25.2771 30.6575 24.8016C30.9914 23.5126 31.3884 21.1639 31.3884 17.2632C31.3884 13.3625 30.9914 11.0112 30.6575 9.72475ZM28.6608 24.2912C28.6215 24.4493 28.5453 24.5959 28.4384 24.7189C28.3315 24.8419 28.197 24.9379 28.0459 24.9989C23.966 26.5741 17.027 26.5457 16.96 26.5457H16.9509C16.8813 26.5457 9.94745 26.5715 5.86499 24.9989C5.71387 24.9379 5.57936 24.8419 5.47248 24.7189C5.3656 24.5959 5.28939 24.4493 5.25011 24.2912C4.93687 23.1142 4.57593 20.946 4.57593 17.2632C4.57593 13.5803 4.93687 11.4121 5.24108 10.2417C5.27964 10.0826 5.35552 9.93494 5.46244 9.81098C5.56936 9.68702 5.70425 9.5903 5.85597 9.52881C9.79019 8.00901 16.3825 7.98194 16.9226 7.98194H16.9574C17.027 7.98194 23.9673 7.95874 28.0433 9.52881C28.1944 9.5898 28.3289 9.68574 28.4358 9.80875C28.5427 9.93176 28.6189 10.0784 28.6582 10.2365C28.965 11.4121 29.3259 13.5803 29.3259 17.2632C29.3259 20.946 28.965 23.1142 28.6608 24.2847V24.2912Z"
        fill="white" />
</svg>
    